<svg width="24" height="25" viewBox="0 0 24 25" fill="none" xmlns="http://www.w3.org/2000/svg">
<path d="M7.80001 5.96268L8.39429 6.75506L7.80001 5.96268C5.54554 7.65354 4.25318 9.43719 3.57925 11.136C3.06416 12.4187 2.86594 13.8065 3.00111 15.1818C3.02556 16.1011 3.33111 16.9913 3.87714 17.7321C4.43197 18.4849 5.20754 19.0461 6.09604 19.3377C6.98453 19.6294 7.94182 19.637 8.83484 19.3595C9.72787 19.082 10.5123 18.5332 11.079 17.7893C11.6457 17.0455 11.9666 16.1436 11.9971 15.2089C11.9977 15.1911 11.9982 15.1732 11.9986 15.1554C11.9994 15.1642 12.0002 15.173 12.0011 15.1818C12.0256 16.1011 12.3311 16.9913 12.8771 17.7321C13.432 18.4849 14.2075 19.0461 15.096 19.3377C15.9845 19.6294 16.9418 19.637 17.8348 19.3595C18.7279 19.082 19.5123 18.5332 20.079 17.7893C20.6457 17.0455 20.9666 16.1436 20.9971 15.2089C21.0276 14.2743 20.7662 13.3534 20.2491 12.5741C19.7321 11.7949 18.9852 11.1962 18.1121 10.8611C17.9203 10.7874 17.7245 10.7273 17.5261 10.6808C17.9529 10.1986 18.4993 9.68821 19.2 9.16268C19.4101 9.00509 19.5871 8.80766 19.721 8.58167C19.8548 8.35568 19.9428 8.10554 19.9799 7.84553C20.0171 7.58552 20.0026 7.32074 19.9374 7.06632C19.8723 6.81189 19.7576 6.5728 19.6 6.36268C19.4424 6.15257 19.245 5.97555 19.019 5.84173C18.793 5.70792 18.5429 5.61993 18.2829 5.58278C18.0228 5.54564 17.7581 5.56007 17.5036 5.62526C17.2492 5.69044 17.0101 5.8051 16.8 5.96268L17.3953 6.75635L16.8 5.96268C14.5451 7.65385 13.2541 9.43755 12.5794 11.1357C12.1525 12.1986 11.9432 13.3336 11.9609 14.4739C11.8718 13.7979 11.6297 13.1476 11.2491 12.5741C10.7321 11.7949 9.98516 11.1962 9.11212 10.8611C8.9203 10.7874 8.72449 10.7273 8.52609 10.6808C8.95295 10.1986 9.49931 9.68821 10.2 9.16268C10.4101 9.0051 10.5871 8.80767 10.721 8.58167C10.8548 8.35567 10.9428 8.10553 10.9799 7.84553C11.0171 7.58552 11.0026 7.32075 10.9374 7.06632C10.8723 6.8119 10.7576 6.5728 10.6 6.36268C10.4424 6.15257 10.245 5.97555 10.019 5.84173C9.793 5.70792 9.54286 5.61993 9.28285 5.58278C9.02285 5.54564 8.75807 5.56007 8.50365 5.62526C8.24922 5.69044 8.01012 5.8051 7.80001 5.96268Z" fill="#DCEEFB" stroke="#969191" stroke-width="2"/>
</svg>
