<svg width="24" height="25" viewBox="0 0 24 25" fill="none" xmlns="http://www.w3.org/2000/svg">
<path d="M16.4999 5.56268L16.4993 5.56268C15.8609 5.56313 15.2298 5.69942 14.6481 5.9625C14.0664 6.22559 13.5473 6.60945 13.1254 7.08858C12.7034 7.5677 12.3882 8.13114 12.2008 8.74144C12.0765 9.14612 12.0102 9.56526 12.0031 9.9864C12.0017 9.97189 12.0003 9.95746 11.9989 9.94313C11.968 8.77905 11.4869 7.67156 10.6558 6.85423C9.81398 6.02638 8.68054 5.56252 7.49988 5.56268L7.49932 5.56268C6.86087 5.56313 6.22983 5.69942 5.64811 5.9625C5.06639 6.22559 4.54732 6.60945 4.12536 7.08858C3.7034 7.5677 3.38823 8.13114 3.20078 8.74144C3.01332 9.35175 2.95788 9.99495 3.03813 10.6283C3.11839 11.2617 3.3325 11.8708 3.66624 12.415C3.99998 12.9593 4.44572 13.4263 4.97384 13.7851C5.43025 14.0951 5.93915 14.3181 6.4749 14.4438C6.04796 14.9261 5.50132 15.4367 4.80001 15.9627L5.40001 16.7627L4.80001 15.9627C4.37567 16.2809 4.09513 16.7547 4.02011 17.2798C3.9451 17.8049 4.08175 18.3383 4.40001 18.7627C4.71827 19.187 5.19207 19.4676 5.71717 19.5426C5.97718 19.5797 6.24195 19.5653 6.49638 19.5001C6.7508 19.4349 6.9899 19.3203 7.20001 19.1627C9.45545 17.4711 10.7479 15.6867 11.4216 13.9872C11.9304 12.7058 12.0559 11.5519 12.0398 10.6413C12.1213 11.27 12.3348 11.8745 12.6662 12.415C13 12.9593 13.4457 13.4263 13.9738 13.7851C14.4302 14.0951 14.9392 14.3181 15.4749 14.4438C15.048 14.9261 14.5013 15.4367 13.8 15.9627C13.3757 16.2809 13.0951 16.7547 13.0201 17.2798C12.9451 17.8049 13.0818 18.3383 13.4 18.7627C13.7183 19.187 14.1921 19.4676 14.7172 19.5426C14.9772 19.5797 15.242 19.5653 15.4964 19.5001C15.7508 19.4349 15.9899 19.3203 16.2 19.1627C18.4557 17.4709 19.7469 15.6865 20.4214 13.9877C21.0714 12.3512 21.0961 10.9226 20.9989 9.94313C20.968 8.77905 20.4869 7.67156 19.6558 6.85423C18.814 6.02638 17.6805 5.56252 16.4999 5.56268Z" fill="#DCEEFB" stroke="#969191" stroke-width="2"/>
</svg>
