<svg width="24" height="25" viewBox="0 0 24 25" fill="none" xmlns="http://www.w3.org/2000/svg">
<path d="M22 13.5627V14.5627V18.5626C22 18.5626 22 18.5627 22 18.5627C22 19.5829 21.6102 20.5647 20.9103 21.307C20.2103 22.0493 19.2532 22.4961 18.2347 22.556L18.2195 22.5569L18.2044 22.5573L18.0284 22.5623L18.0142 22.5627H18H13H12H11H6.00005C6.00004 22.5627 6.00002 22.5627 6 22.5627C4.97974 22.5627 3.99802 22.1729 3.25571 21.473C2.51338 20.773 2.06658 19.8159 2.00672 18.7973L2.00583 18.7822L2.0054 18.7671L2.0004 18.5911L2 18.5769V18.5627V14.5627V13.5627V12.5627V9.56274C2 9.56272 2 9.5627 2 9.56268C1.99996 8.54242 2.38978 7.56071 3.08971 6.81839C3.61811 6.25799 4.2931 5.86602 5.03041 5.68179C5.01035 5.51161 5 5.33841 5 5.16275L22 13.5627ZM22 13.5627V12.5627V9.56268V9.54848L21.9996 9.53429L21.9946 9.35829L21.9942 9.34314L21.9933 9.32802C21.9334 8.30949 21.4866 7.35234 20.7443 6.6524C20.2417 6.17848 19.6293 5.84673 18.9695 5.68191M22 13.5627L18.9695 5.68191M18.9695 5.68191C18.9896 5.51159 19 5.33833 19 5.16268C19 4.2079 18.6207 3.29223 17.9456 2.6171C17.2705 1.94197 16.3548 1.56268 15.4 1.56268H15.334H15.32L15.306 1.56307L15.056 1.57007L15.0414 1.57048L15.0269 1.57132C14.2964 1.61313 13.5824 1.80487 12.9293 2.1346C12.5988 2.30149 12.2874 2.50191 11.9999 2.73216C11.0872 2.00088 9.92798 1.56268 8.667 1.56268H8.6H8.58476L8.56953 1.56315L8.40553 1.56815L8.38921 1.56865L8.37292 1.56967C7.45923 1.62742 6.60187 2.03111 5.97528 2.6986C5.3487 3.36608 4.99995 4.24719 5 5.16268L18.9695 5.68191Z" fill="#DCEEFB" stroke="#969191" stroke-width="2"/>
</svg>
