<svg width="27" height="25" viewBox="0 0 27 25" fill="none" xmlns="http://www.w3.org/2000/svg">
<path d="M1.66602 14.0075C1.65939 15.1015 2.01348 16.8038 3.48166 17.6891L3.49064 17.6945L3.49972 17.6997L3.76072 17.8497L3.77072 17.8555L3.78084 17.861L4.14084 18.057L4.14768 18.0607L4.15457 18.0643L4.85057 18.4293L4.85054 18.4294L4.86031 18.4343L6.00031 19.0163L6.0003 19.0164L6.00646 19.0195L7.61046 19.8245L7.61045 19.8245L7.61647 19.8274L11.4565 21.7225L11.4601 21.7242C12.2581 22.114 13.1754 22.0418 13.8911 21.5885L24.1743 15.079C24.1745 15.0789 24.1747 15.0787 24.1749 15.0786C25.2977 14.3685 25.5694 13.0198 25.1546 11.99L25.1542 11.989C25.0651 11.7687 25.0275 11.6049 25.031 11.3816C25.035 11.1277 25.0938 10.7549 25.2783 10.1252C25.4444 9.56319 25.4087 8.96073 25.1773 8.42227C24.9456 7.88327 24.5324 7.44246 24.0095 7.17641L24.007 7.17515L16.563 3.41415L16.5629 3.41413C16.1772 3.21924 15.75 3.12991 15.3235 3.14906C14.8944 3.16833 14.4774 3.29785 14.1129 3.52512L14.1102 3.52684L6.60218 8.24184L6.60217 8.24181L6.59577 8.2459L4.55077 9.5519L4.55074 9.55185L4.54176 9.55772L3.68376 10.1187L3.67333 10.1255L3.66308 10.1326L3.36308 10.3396L3.35526 10.345L3.34753 10.3506C2.05018 11.2826 1.6709 12.8819 1.66602 14.0075ZM1.66602 14.0075C1.66602 14.0071 1.66602 14.0068 1.66603 14.0064L2.66601 14.0127M1.66602 14.0075C1.66602 14.0079 1.66602 14.0082 1.66602 14.0086L2.66601 14.0127M2.66601 14.0127C2.67001 13.0417 3.00401 11.8287 3.93101 11.1627L24.319 9.84269C23.929 11.1737 23.972 11.7327 24.227 12.3637C24.484 13.0017 24.306 13.8127 23.64 14.2337L13.356 20.7437C12.925 21.0167 12.376 21.0587 11.899 20.8257L8.05901 18.9307L6.45501 18.1257L5.31501 17.5437L4.61901 17.1787L4.25901 16.9827L3.99801 16.8327C2.97801 16.2177 2.66001 14.9677 2.66601 14.0127ZM15.5257 8.3763L15.5213 8.37371L17.5743 9.44909L17.5787 9.45168L15.5257 8.3763Z" fill="#DCEEFB" stroke="#969191" stroke-width="2"/>
</svg>
