<svg width="24" height="25" viewBox="0 0 24 25" fill="none" xmlns="http://www.w3.org/2000/svg">
<path d="M12.4799 24.2103L12.4733 24.2056L12.4813 24.2052L12.4799 24.2103ZM12.4799 24.2103L12.4949 24.2143M12.4799 24.2103L12.4837 24.205L12.4917 24.2046L12.4949 24.2143M12.4949 24.2143L12.5069 24.2103M12.4949 24.2143L12.4975 24.2047L12.5031 24.205L12.5069 24.2103M12.5069 24.2103L12.5081 24.2095L12.5088 24.2053L12.5052 24.2051L12.5069 24.2103Z" fill="#DCEEFB" stroke="#969191" stroke-width="2"/>
<path d="M15.0109 8.5697L15.2327 8.95038L15.6632 9.04367L21.0906 10.2195C21.0907 10.2195 21.0907 10.2196 21.0908 10.2196C21.1334 10.2289 21.1729 10.2492 21.2053 10.2784C21.2377 10.3078 21.2618 10.3451 21.2753 10.3866C21.2888 10.4282 21.2912 10.4726 21.2822 10.5153C21.2732 10.558 21.2533 10.5975 21.2243 10.6301C21.2243 10.6301 21.2243 10.6301 21.2242 10.6301C21.2242 10.6302 21.2241 10.6303 21.224 10.6303L17.5243 14.7711L17.2306 15.0997L17.2751 15.5382L17.8351 21.0632L17.8351 21.0634C17.8395 21.1069 17.8324 21.1508 17.8146 21.1907C17.7967 21.2306 17.7687 21.2652 17.7333 21.2909C17.6979 21.3166 17.6564 21.3326 17.6129 21.3372C17.5695 21.3419 17.5255 21.335 17.4855 21.3174L17.4853 21.3173L12.4033 19.0773L12 18.8995L11.5967 19.0773L6.51466 21.3173L6.51447 21.3174C6.47446 21.335 6.43051 21.3419 6.38702 21.3372C6.34353 21.3326 6.30202 21.3166 6.26664 21.2909C6.23126 21.2652 6.20324 21.2306 6.18538 21.1907C6.16752 21.1508 6.16045 21.1069 6.16487 21.0634L6.16489 21.0632L6.72489 15.5382L6.76934 15.0996L6.4756 14.771L2.7756 10.631L2.77533 10.6307C2.74618 10.5981 2.72608 10.5584 2.71706 10.5156C2.70803 10.4728 2.71038 10.4284 2.72388 10.3868C2.73738 10.3452 2.76156 10.3079 2.79399 10.2786C2.82643 10.2492 2.86599 10.2289 2.90873 10.2197C2.90873 10.2197 2.90873 10.2197 2.90873 10.2197L8.33673 9.04367L8.7673 8.95038L8.98906 8.5697L11.784 3.77183C11.806 3.73406 11.8375 3.70273 11.8754 3.68095C11.9133 3.65917 11.9563 3.64771 12 3.64771C12.0437 3.64771 12.0866 3.65917 12.1245 3.68095C12.1624 3.7027 12.1939 3.73399 12.2159 3.7717C12.2159 3.77174 12.216 3.77179 12.216 3.77183L15.0109 8.5697Z" fill="#DCEEFB" stroke="#969191" stroke-width="2"/>
</svg>
