<svg width="24" height="25" viewBox="0 0 24 25" fill="none" xmlns="http://www.w3.org/2000/svg">
<path fill-rule="evenodd" clip-rule="evenodd" d="M14.536 13.2697C14.7235 13.0821 14.8288 12.8278 14.8288 12.5627C14.8288 12.2975 14.7235 12.0432 14.536 11.8557L11.707 9.02667C11.5671 8.8868 11.3888 8.79158 11.1948 8.75304C11.0007 8.71451 10.7996 8.73439 10.6169 8.81019C10.4341 8.88598 10.278 9.01428 10.1682 9.17884C10.0584 9.3434 9.99984 9.53684 10 9.73467V15.3907C9.99984 15.5885 10.0584 15.7819 10.1682 15.9465C10.278 16.1111 10.4341 16.2394 10.6169 16.3152C10.7996 16.391 11.0007 16.4108 11.1948 16.3723C11.3888 16.3338 11.5671 16.2385 11.707 16.0987L14.536 13.2697Z" fill="#4FABEC"/>
</svg>
