<svg width="25" height="25" viewBox="0 0 25 25" fill="none" xmlns="http://www.w3.org/2000/svg">
<g id="Group">
<path id="Vector" fill-rule="evenodd" clip-rule="evenodd" d="M15.036 13.2696C15.2235 13.082 15.3288 12.8277 15.3288 12.5626C15.3288 12.2974 15.2235 12.0431 15.036 11.8556L12.207 9.02657C12.0671 8.8867 11.8888 8.79147 11.6948 8.75293C11.5007 8.7144 11.2996 8.73429 11.1169 8.81008C10.9341 8.88587 10.778 9.01417 10.6682 9.17873C10.5584 9.3433 10.4998 9.53673 10.5 9.73457V15.3906C10.4998 15.5884 10.5584 15.7818 10.6682 15.9464C10.778 16.111 10.9341 16.2393 11.1169 16.3151C11.2996 16.3908 11.5007 16.4107 11.6948 16.3722C11.8888 16.3337 12.0671 16.2384 12.207 16.0986L15.036 13.2696Z" fill="#40393A"/>
</g>
</svg>
