<svg width="32" height="32" viewBox="0 0 32 32" fill="none" xmlns="http://www.w3.org/2000/svg">
<path d="M24.1395 29.5561L24.1401 29.5559C25.2482 29.2623 26.3861 28.8195 27.2885 28.0946C28.2631 27.3126 29 26.1567 29 24.6666C29 23.3132 28.3882 22.1185 27.6597 21.1965C26.9117 20.2486 25.9016 19.4065 24.7581 18.7089C23.0786 17.6843 20.9732 16.8857 18.6374 16.532C19.6737 16.1523 20.6258 15.5498 21.4212 14.7544C22.8589 13.3167 23.6667 11.3666 23.6667 9.33329C23.6667 7.29997 22.8589 5.34992 21.4212 3.91214C19.9834 2.47436 18.0333 1.66663 16 1.66663C13.9667 1.66663 12.0166 2.47436 10.5788 3.91214C9.14107 5.34992 8.33333 7.29997 8.33333 9.33329C8.33333 11.3666 9.14107 13.3167 10.5788 14.7544C11.3743 15.5499 12.3266 16.1525 13.3631 16.5322C11.0275 16.8861 8.92159 17.6849 7.24262 18.7072L7.24083 18.7082C6.09698 19.408 5.08868 20.2483 4.3408 21.1945L4.34026 21.1952C3.61206 22.1182 3 23.3129 3 24.6666C3 26.1565 3.7354 27.3111 4.71136 28.0945C5.61373 28.8194 6.75174 29.2623 7.85987 29.5559L7.85994 29.556C10.0938 30.1477 13.0083 30.3333 16 30.3333C18.9923 30.3333 21.9062 30.1463 24.1395 29.5561Z" fill="#DCEEFB" stroke="#969191" stroke-width="2"/>
</svg>
