<svg width="32" height="32" viewBox="0 0 32 32" fill="none" xmlns="http://www.w3.org/2000/svg">
<path d="M10.1548 15.4882C9.84224 15.8007 9.66665 16.2246 9.66665 16.6667C9.66665 17.1087 9.84224 17.5326 10.1548 17.8452C10.4674 18.1577 10.8913 18.3333 11.3333 18.3333C11.7753 18.3333 12.1993 18.1577 12.5118 17.8452L12.5118 17.8452C12.8244 17.5326 13 17.1087 13 16.6667C13 16.2246 12.8244 15.8007 12.5118 15.4882C12.1993 15.1756 11.7753 15 11.3333 15C10.8913 15 10.4674 15.1756 10.1548 15.4882ZM10.1548 15.4882L10.8469 16.1802L10.1548 15.4882C10.1548 15.4882 10.1548 15.4882 10.1548 15.4882ZM16.0001 3H16C15.3811 3 14.7876 3.24583 14.3501 3.68342C13.9125 4.121 13.6666 4.71449 13.6666 5.33333V5.66667H12.6666H12.6584L12.6502 5.6668L12.3262 5.67214L12.3181 5.67227L12.31 5.67253C9.4255 5.76678 6.69359 6.99085 4.70332 9.08083C2.71306 11.1708 1.62388 13.9592 1.67063 16.8449C1.71739 19.7305 2.89635 22.4822 4.95329 24.5066C7.01023 26.531 9.78036 27.6659 12.6664 27.6667H12.6666H19.3333H19.3415L19.3498 27.6665L19.6738 27.6612L19.6819 27.6611L19.69 27.6608C22.5745 27.5666 25.3064 26.3425 27.2966 24.2525C29.2869 22.1625 30.3761 19.3741 30.3293 16.4884C30.2826 13.6028 29.1036 10.8511 27.0467 8.82671C24.9897 6.80232 22.2196 5.6674 19.3336 5.66667H19.3333H18.3333V5.33333V5.30345L18.3315 5.27362L18.3222 5.11762L18.3205 5.0889L18.3171 5.06033C18.2502 4.49275 17.9774 3.96944 17.5503 3.58967C17.1232 3.2099 16.5716 3.00008 16.0001 3ZM19.3333 16.3333H20.3333V15.3333V14.6667C20.3333 14.5783 20.3684 14.4935 20.4309 14.431C20.4935 14.3685 20.5782 14.3333 20.6666 14.3333C20.7551 14.3333 20.8398 14.3685 20.9023 14.431C20.9649 14.4935 21 14.5783 21 14.6667V15.3333V16.3333H22H22.6666C22.7551 16.3333 22.8398 16.3685 22.9023 16.431C22.9649 16.4935 23 16.5783 23 16.6667C23 16.7551 22.9649 16.8399 22.9023 16.9024C22.8398 16.9649 22.7551 17 22.6666 17H22H21V18V18.6667C21 18.7551 20.9649 18.8399 20.9023 18.9024C20.8398 18.9649 20.7551 19 20.6666 19C20.5782 19 20.4935 18.9649 20.4309 18.9024L19.7238 19.6095L20.4309 18.9024C20.3684 18.8399 20.3333 18.7551 20.3333 18.6667V18V17H19.3333H18.6666C18.5782 17 18.4935 16.9649 18.4309 16.9024C18.3684 16.8399 18.3333 16.7551 18.3333 16.6667C18.3333 16.5783 18.3684 16.4935 18.4309 16.431C18.4935 16.3685 18.5782 16.3333 18.6666 16.3333H19.3333ZM9.6834 15.0168C10.121 14.5792 10.7145 14.3333 11.3333 14.3333C11.9522 14.3333 12.5456 14.5792 12.9832 15.0168C13.4208 15.4543 13.6666 16.0478 13.6666 16.6667C13.6666 17.2855 13.4208 17.879 12.9832 18.3166C12.5456 18.7542 11.9522 19 11.3333 19C10.7145 19 10.121 18.7542 9.6834 18.3166C9.24581 17.879 8.99998 17.2855 8.99998 16.6667C8.99998 16.0478 9.24581 15.4543 9.6834 15.0168Z" fill="#DCEEFB" stroke="#969191" stroke-width="2"/>
</svg>
