<svg width="32" height="32" viewBox="0 0 32 32" fill="none" xmlns="http://www.w3.org/2000/svg">
<path d="M23.6847 22.349L23.6835 22.3502L21.7045 24.3292L21.6228 24.4017C21.5308 24.4686 21.4182 24.5017 21.3042 24.495C21.1834 24.4879 21.0693 24.4367 20.9838 24.351L20.9833 24.3505C20.5041 23.8709 19.9351 23.4905 19.3088 23.2309L18.926 24.1548L19.3088 23.2309C18.6825 22.9714 18.0112 22.8378 17.3333 22.8378C16.6553 22.8378 15.984 22.9714 15.3577 23.2309L15.7406 24.1548L15.3577 23.2309C14.9917 23.3827 14.6452 23.5757 14.3247 23.8056L27.3977 10.7338L27.4089 10.7226L27.4198 10.711L27.5825 10.5376L27.5931 10.5263L27.6033 10.5147C28.3499 9.66811 28.7366 8.56362 28.6813 7.43622C28.6259 6.30884 28.1329 5.24753 27.307 4.47812C26.4811 3.7087 25.3876 3.2919 24.2591 3.31639C23.1321 3.34085 22.059 3.80356 21.2675 4.6062L5.83551 20.0382L5.81589 20.0579L5.79738 20.0785L5.66138 20.2305L5.64619 20.2475L5.6318 20.2651C5.37429 20.5808 5.18375 20.9455 5.0718 21.3371L5.07142 21.3385L3.99542 25.1225L3.98892 25.1453L3.98351 25.1685L3.95018 25.3111L3.94338 25.3403L3.93833 25.3697C3.87159 25.759 3.90478 26.1589 4.03479 26.5319C4.16479 26.9049 4.38735 27.2388 4.68162 27.5022C4.97588 27.7657 5.33222 27.9502 5.71725 28.0384C6.10155 28.1264 6.50187 28.1156 6.88084 28.007C6.88156 28.0068 6.88227 28.0066 6.88299 28.0064L10.6629 26.9312L10.6863 26.9245L10.7094 26.9167L10.9028 26.8514L10.9284 26.8427L10.9535 26.8327C11.3317 26.6817 11.6752 26.4552 11.963 26.1671C11.9632 26.167 11.9633 26.1668 11.9635 26.1667L12.6695 25.4608C12.4127 25.8869 12.2976 26.3863 12.3453 26.8862L13.3349 26.7919L12.3453 26.8862C12.4015 27.4763 12.6802 28.023 13.1249 28.4151C13.5695 28.8071 14.1467 29.0153 14.7393 28.9972C15.3318 28.9791 15.8953 28.7361 16.3152 28.3176L16.3164 28.3164L16.9621 27.6708L17.0437 27.5983C17.1358 27.5314 17.2484 27.4983 17.3623 27.505C17.4832 27.5121 17.5972 27.5633 17.6828 27.649L17.6832 27.6495C18.1624 28.1291 18.7315 28.5095 19.3577 28.769L19.7406 27.8452L19.3577 28.7691C19.984 29.0286 20.6553 29.1622 21.3333 29.1622C22.0112 29.1622 22.6825 29.0286 23.3088 28.7691L22.926 27.8452L23.3088 28.769C23.935 28.5095 24.5039 28.1292 24.9831 27.6498C24.9832 27.6497 24.9832 27.6496 24.9833 27.6495L26.9831 25.6498L27.005 25.6278L27.0256 25.6045L27.1362 25.4792L27.1578 25.4548L27.1777 25.429C27.5403 24.96 27.7109 24.3706 27.6546 23.7805C27.5984 23.1903 27.3197 22.6437 26.875 22.2516C26.4304 21.8595 25.8532 21.6514 25.2606 21.6695C24.6681 21.6876 24.1046 21.9305 23.6847 22.349Z" fill="#DCEEFB" stroke="#969191" stroke-width="2"/>
</svg>
