<svg width="32" height="32" viewBox="0 0 32 32" fill="none" xmlns="http://www.w3.org/2000/svg">
<path d="M12.5638 3.52483L12.5644 3.52558C13.025 4.18658 13.6386 4.72646 14.3529 5.09926C15.0671 5.47205 15.8609 5.66672 16.6666 5.6667H16.6666C17.8991 5.6667 19.0216 5.224 19.8917 4.48838C20.2102 4.21903 20.5951 4.03999 21.0063 3.9699C21.4175 3.8998 21.8401 3.94125 22.2299 4.08993C22.6197 4.23861 22.9625 4.48908 23.2226 4.81526C23.4826 5.14125 23.6504 5.53094 23.7087 5.9438C23.8558 6.97696 24.3707 7.92238 25.1589 8.60632C25.9472 9.29038 26.956 9.66691 27.9998 9.6667H28C28.4333 9.6667 28.8581 9.78736 29.2267 10.0152C29.5953 10.243 29.8932 10.569 30.087 10.9565C30.2807 11.3441 30.3628 11.778 30.3239 12.2096L29.3279 12.1198L30.3239 12.2096C30.285 12.6412 30.1266 13.0534 29.8666 13.4L29.8656 13.4014C29.3023 14.1498 28.9984 15.0616 29 15.9984L29 16C29 16.9787 29.3211 17.8745 29.8659 18.5991L29.8666 18.6C30.1266 18.9467 30.285 19.3589 30.3239 19.7905L29.3279 19.8803L30.3239 19.7905C30.3628 20.2221 30.2807 20.656 30.087 21.0435C29.8932 21.4311 29.5953 21.7571 29.2267 21.9849C28.8581 22.2127 28.4333 22.3334 28 22.3334H27.9999C26.9426 22.3333 25.9217 22.7199 25.1295 23.4203C24.3377 24.1203 23.8291 25.0855 23.6993 26.1344C23.6422 26.6046 23.4433 27.0464 23.129 27.4009L22.3807 26.7376L23.129 27.4009C22.8145 27.7556 22.3995 28.0061 21.9392 28.1191C21.4788 28.2321 20.995 28.2022 20.5521 28.0334C20.1091 27.8646 19.7281 27.565 19.4597 27.1742L19.4591 27.1734C18.9998 26.5032 18.384 25.955 17.6652 25.5763C16.9463 25.1976 16.146 24.9998 15.3335 25H15.3314C14.0712 24.9977 12.8571 25.4738 11.9344 26.3322L11.9325 26.3339C11.6448 26.6002 11.2947 26.7897 10.9144 26.885C10.5341 26.9802 10.1359 26.978 9.75666 26.8788C9.37741 26.7795 9.02928 26.5862 8.74444 26.3169C8.45959 26.0475 8.2472 25.7107 8.12688 25.3376L8.12684 25.3374C7.84548 24.4644 7.29437 23.7032 6.55285 23.1634C5.81133 22.6236 4.91763 22.3329 4.00042 22.3334H3.99996C3.56663 22.3334 3.14187 22.2127 2.77326 21.9849L2.77325 21.9849C2.40464 21.7571 2.10675 21.4311 1.91296 21.0435C1.71917 20.6559 1.63714 20.2221 1.67605 19.7905C1.71497 19.3589 1.8733 18.9467 2.13329 18.6L2.13401 18.5991C2.67879 17.8745 2.99996 16.9787 2.99996 16C2.99996 15.0217 2.67901 14.1269 2.13358 13.4004L2.13329 13.4C1.8733 13.0534 1.71497 12.6412 1.67605 12.2096C1.63714 11.778 1.71917 11.3441 1.91296 10.9565C2.10675 10.569 2.40464 10.243 2.77325 10.0152C3.14187 9.78736 3.56663 9.6667 3.99996 9.6667H4C4.59509 9.66672 5.18381 9.54417 5.72946 9.3067C6.27511 9.06922 6.766 8.7219 7.17153 8.28638C7.57706 7.85086 7.88855 7.33649 8.08657 6.77531C8.28459 6.21414 8.3649 5.61819 8.3225 5.02461L8.32236 5.02265C8.28702 4.51381 8.41939 4.00741 8.6992 3.58095C8.97891 3.15465 9.39056 2.8317 9.87118 2.6615L12.5638 3.52483ZM12.5638 3.52483C12.2714 3.10603 11.8496 2.79477 11.3632 2.63882C10.8769 2.48292 10.353 2.49082 9.8717 2.66131L12.5638 3.52483ZM3.99996 21.3334C3.75234 21.3334 3.50962 21.2644 3.29899 21.1342C3.08835 21.004 2.91813 20.8178 2.80739 20.5963C2.69665 20.3748 2.64978 20.1269 2.67201 19.8803C2.69425 19.6337 2.78472 19.3981 2.93329 19.2C3.60396 18.308 3.99996 17.2027 3.99996 16C3.99996 14.7974 3.60396 13.6934 2.93329 12.8C2.78472 12.6019 2.69425 12.3664 2.67201 12.1198C2.64978 11.8732 2.69665 11.6252 2.80739 11.4037C2.91813 11.1823 3.08835 10.996 3.29899 10.8658C3.50962 10.7356 3.75234 10.6667 3.99996 10.6667V21.3334ZM28 16C28 17.2027 28.396 18.308 29.0666 19.2V12.8C28.3725 13.7223 27.998 14.8457 28 16Z" fill="#DCEEFB" stroke="#969191" stroke-width="2"/>
</svg>
