<svg width="32" height="32" viewBox="0 0 32 32" fill="none" xmlns="http://www.w3.org/2000/svg">
<g filter="url(#filter0_d_189_403)">
<path fill-rule="evenodd" clip-rule="evenodd" d="M16 18.8294L23.0707 25.9C23.4459 26.2752 23.9547 26.486 24.4853 26.486C25.0159 26.486 25.5248 26.2752 25.9 25.9C26.2752 25.5248 26.486 25.016 26.486 24.4854C26.486 23.9548 26.2752 23.4459 25.9 23.0707L18.8267 16L25.8987 8.92936C26.0844 8.74358 26.2316 8.52305 26.3321 8.28035C26.4326 8.03766 26.4842 7.77755 26.4842 7.51489C26.4841 7.25222 26.4323 6.99214 26.3317 6.74949C26.2312 6.50684 26.0838 6.28638 25.898 6.10069C25.7122 5.915 25.4917 5.76772 25.249 5.66726C25.0063 5.5668 24.7462 5.51513 24.4835 5.51519C24.2209 5.51525 23.9608 5.56705 23.7181 5.66762C23.4755 5.7682 23.255 5.91558 23.0693 6.10136L16 13.172L8.92933 6.10136C8.74493 5.91025 8.52431 5.75779 8.28035 5.65285C8.0364 5.54792 7.77398 5.49263 7.50843 5.4902C7.24287 5.48776 6.97949 5.53824 6.73365 5.63869C6.48781 5.73914 6.26444 5.88754 6.07657 6.07523C5.88869 6.26293 5.74008 6.48616 5.6394 6.73191C5.53873 6.97765 5.488 7.24098 5.49018 7.50654C5.49236 7.7721 5.54741 8.03457 5.65211 8.27862C5.75681 8.52268 5.90907 8.74344 6.1 8.92803L13.1733 16L6.10133 23.072C5.9104 23.2566 5.75815 23.4774 5.65344 23.7214C5.54874 23.9655 5.49369 24.2279 5.49151 24.4935C5.48933 24.7591 5.54006 25.0224 5.64074 25.2681C5.74141 25.5139 5.89003 25.7371 6.0779 25.9248C6.26577 26.1125 6.48914 26.2609 6.73498 26.3614C6.98082 26.4618 7.2442 26.5123 7.50976 26.5099C7.77532 26.5074 8.03773 26.4521 8.28169 26.3472C8.52565 26.2423 8.74626 26.0898 8.93067 25.8987L16 18.8294Z" fill="#DCEEFB"/>
<path d="M26.6071 22.3636L26.607 22.3635L20.2411 16L26.6057 9.63653L26.6059 9.6363C26.8845 9.35764 27.1054 9.02685 27.2561 8.66282C27.4068 8.29879 27.4843 7.90864 27.4842 7.51465C27.4841 7.12067 27.4064 6.73055 27.2555 6.36659C27.1047 6.00263 26.8836 5.67194 26.6049 5.39342C26.3263 5.11489 25.9955 4.89398 25.6315 4.74329C25.2674 4.59261 24.8773 4.5151 24.4833 4.51519C24.0893 4.51528 23.6992 4.59297 23.3352 4.74383C22.9713 4.89467 22.6407 5.11571 22.3622 5.39432C22.3621 5.39435 22.3621 5.39439 22.3621 5.39442L15.9999 11.7577L9.6421 5.39991C9.36689 5.11656 9.0384 4.89033 8.67548 4.73423C8.30954 4.57683 7.91592 4.49389 7.51759 4.49024C7.11925 4.48659 6.72418 4.56231 6.35542 4.71298C5.98666 4.86365 5.6516 5.08625 5.36979 5.36779C5.08798 5.64934 4.86507 5.98419 4.71405 6.3528C4.56303 6.72142 4.48694 7.11642 4.49021 7.51476C4.49349 7.91309 4.57606 8.30679 4.73311 8.67288C4.88894 9.03613 5.11502 9.36497 5.3983 9.64054L11.7591 16.0001L5.39964 22.3595C5.11635 22.6351 4.89028 22.9639 4.73444 23.3272C4.57739 23.6933 4.49482 24.087 4.49155 24.4853C4.48827 24.8836 4.56437 25.2786 4.71538 25.6472C4.8664 26.0159 5.08932 26.3507 5.37113 26.6323C5.65293 26.9138 5.98799 27.1364 6.35675 27.2871C6.72551 27.4377 7.12058 27.5135 7.51892 27.5098C7.91725 27.5062 8.31087 27.4232 8.67681 27.2658C9.03973 27.1097 9.36822 26.8835 9.64343 26.6001L16 20.2436L22.3636 26.6071C22.9263 27.1699 23.6895 27.486 24.4853 27.486C25.2812 27.486 26.0444 27.1699 26.6071 26.6071C27.1698 26.0444 27.486 25.2812 27.486 24.4854C27.486 23.6895 27.1698 22.9263 26.6071 22.3636Z" stroke="#B9B5B6" stroke-width="2"/>
</g>
<defs>
<filter id="filter0_d_189_403" x="3.49011" y="3.49011" width="26.9958" height="27.0198" filterUnits="userSpaceOnUse" color-interpolation-filters="sRGB">
<feFlood flood-opacity="0" result="BackgroundImageFix"/>
<feColorMatrix in="SourceAlpha" type="matrix" values="0 0 0 0 0 0 0 0 0 0 0 0 0 0 0 0 0 0 127 0" result="hardAlpha"/>
<feOffset dx="2" dy="2"/>
<feComposite in2="hardAlpha" operator="out"/>
<feColorMatrix type="matrix" values="0 0 0 0 0.247059 0 0 0 0 0.537255 0 0 0 0 0.741176 0 0 0 1 0"/>
<feBlend mode="normal" in2="BackgroundImageFix" result="effect1_dropShadow_189_403"/>
<feBlend mode="normal" in="SourceGraphic" in2="effect1_dropShadow_189_403" result="shape"/>
</filter>
</defs>
</svg>
