<svg width="32" height="32" viewBox="0 0 32 32" fill="none" xmlns="http://www.w3.org/2000/svg">
<path d="M30.3333 16.0021V16C30.3333 8.08374 23.9162 1.66669 16 1.66669C8.08367 1.66669 1.66663 8.08374 1.66663 16C1.66663 23.9163 8.08367 30.3334 16 30.3334C17.7234 30.3334 19.527 29.6635 20.4123 27.7856C21.0457 26.4453 21.0262 24.8351 20.3291 23.4408L20.3287 23.4401C20.2743 23.3315 20.2705 23.2427 20.2935 23.1515C20.3202 23.0455 20.3937 22.9059 20.5391 22.7605C20.6201 22.6796 20.7192 22.6192 20.8282 22.5843C20.9373 22.5493 21.0532 22.5409 21.1662 22.5597L21.1662 22.5597L23.4862 22.9464L23.4977 22.9483L23.5092 22.95L23.7425 22.9833L23.7541 22.985L23.7658 22.9863C26.3046 23.2885 29.448 21.9765 30.0752 18.7226L30.0753 18.7223C30.2458 17.8364 30.3314 16.9293 30.3333 16.0021ZM9.29285 15.9596L8.58575 15.2525L9.29285 15.9596C9.38571 15.8667 9.49595 15.7931 9.61727 15.7428C9.7386 15.6926 9.86864 15.6667 9.99996 15.6667C10.2652 15.6667 10.5195 15.772 10.7071 15.9596L11.4142 15.2525L10.7071 15.9596C10.8946 16.1471 11 16.4015 11 16.6667C11 16.9319 10.8946 17.1863 10.7071 17.3738C10.5195 17.5613 10.2652 17.6667 9.99996 17.6667C9.86864 17.6667 9.7386 17.6408 9.61728 17.5906C9.49595 17.5403 9.38571 17.4667 9.29285 17.3738L8.66431 18.0023L9.29285 17.3738C9.19999 17.2809 9.12633 17.1707 9.07608 17.0494C9.02583 16.928 8.99996 16.798 8.99996 16.6667C8.99996 16.5354 9.02583 16.4053 9.07608 16.284C9.12633 16.1627 9.19999 16.0524 9.29285 15.9596ZM18.6262 10.6262C18.8137 10.4387 19.0681 10.3334 19.3333 10.3334C19.5985 10.3334 19.8529 10.4387 20.0404 10.6262C20.2279 10.8138 20.3333 11.0681 20.3333 11.3334C20.3333 11.5986 20.2279 11.8529 20.0404 12.0405C19.8529 12.228 19.5985 12.3334 19.3333 12.3334C19.0681 12.3334 18.8137 12.228 18.6262 12.0405C18.4387 11.8529 18.3333 11.5986 18.3333 11.3334C18.3333 11.0681 18.4387 10.8138 18.6262 10.6262ZM11.9595 10.6262C12.1471 10.4387 12.4014 10.3334 12.6666 10.3334C12.9318 10.3334 13.1862 10.4387 13.3737 10.6262C13.5613 10.8138 13.6666 11.0681 13.6666 11.3334C13.6666 11.5986 13.5613 11.8529 13.3737 12.0405C13.1862 12.228 12.9318 12.3334 12.6666 12.3334C12.4014 12.3334 12.1471 12.228 11.9595 12.0405C11.772 11.8529 11.6666 11.5986 11.6666 11.3334C11.6666 11.0681 11.772 10.8138 11.9595 10.6262Z" fill="#DCEEFB" stroke="#969191" stroke-width="2"/>
</svg>
