<svg width="32" height="32" viewBox="0 0 32 32" fill="none" xmlns="http://www.w3.org/2000/svg">
<g filter="url(#filter0_d_189_43)">
<path d="M6.66667 13.3334C7.37391 13.3334 8.05219 13.6143 8.55229 14.1144C9.05238 14.6145 9.33333 15.2928 9.33333 16C9.33333 16.7073 9.05238 17.3856 8.55229 17.8857C8.05219 18.3858 7.37391 18.6667 6.66667 18.6667C5.95942 18.6667 5.28115 18.3858 4.78105 17.8857C4.28095 17.3856 4 16.7073 4 16C4 15.2928 4.28095 14.6145 4.78105 14.1144C5.28115 13.6143 5.95942 13.3334 6.66667 13.3334ZM16 13.3334C16.7072 13.3334 17.3855 13.6143 17.8856 14.1144C18.3857 14.6145 18.6667 15.2928 18.6667 16C18.6667 16.7073 18.3857 17.3856 17.8856 17.8857C17.3855 18.3858 16.7072 18.6667 16 18.6667C15.2928 18.6667 14.6145 18.3858 14.1144 17.8857C13.6143 17.3856 13.3333 16.7073 13.3333 16C13.3333 15.2928 13.6143 14.6145 14.1144 14.1144C14.6145 13.6143 15.2928 13.3334 16 13.3334ZM25.3333 13.3334C26.0406 13.3334 26.7189 13.6143 27.219 14.1144C27.719 14.6145 28 15.2928 28 16C28 16.7073 27.719 17.3856 27.219 17.8857C26.7189 18.3858 26.0406 18.6667 25.3333 18.6667C24.6261 18.6667 23.9478 18.3858 23.4477 17.8857C22.9476 17.3856 22.6667 16.7073 22.6667 16C22.6667 15.2928 22.9476 14.6145 23.4477 14.1144C23.9478 13.6143 24.6261 13.3334 25.3333 13.3334Z" fill="#DCEEFB"/>
<path d="M9.25939 13.4073C8.57176 12.7197 7.63913 12.3334 6.66667 12.3334C5.69421 12.3334 4.76157 12.7197 4.07394 13.4073C3.38631 14.0949 3 15.0276 3 16C3 16.9725 3.38631 17.9051 4.07394 18.5928C4.76157 19.2804 5.69421 19.6667 6.66667 19.6667C7.63913 19.6667 8.57176 19.2804 9.25939 18.5928C9.94703 17.9051 10.3333 16.9725 10.3333 16C10.3333 15.0276 9.94703 14.0949 9.25939 13.4073ZM18.5927 13.4073C17.9051 12.7197 16.9725 12.3334 16 12.3334C15.0275 12.3334 14.0949 12.7197 13.4073 13.4073C12.7196 14.0949 12.3333 15.0276 12.3333 16C12.3333 16.9725 12.7196 17.9051 13.4073 18.5928C14.0949 19.2804 15.0275 19.6667 16 19.6667C16.9725 19.6667 17.9051 19.2804 18.5927 18.5928C19.2804 17.9051 19.6667 16.9725 19.6667 16C19.6667 15.0276 19.2804 14.0949 18.5927 13.4073ZM27.9261 13.4073C27.2384 12.7197 26.3058 12.3334 25.3333 12.3334C24.3609 12.3334 23.4282 12.7197 22.7406 13.4073C22.053 14.0949 21.6667 15.0276 21.6667 16C21.6667 16.9725 22.053 17.9051 22.7406 18.5928C23.4282 19.2804 24.3609 19.6667 25.3333 19.6667C26.3058 19.6667 27.2384 19.2804 27.9261 18.5928C28.6137 17.9051 29 16.9725 29 16C29 15.0276 28.6137 14.0949 27.9261 13.4073Z" stroke="#B9B5B6" stroke-width="2"/>
</g>
<defs>
<filter id="filter0_d_189_43" x="2" y="11.3334" width="30" height="11.3334" filterUnits="userSpaceOnUse" color-interpolation-filters="sRGB">
<feFlood flood-opacity="0" result="BackgroundImageFix"/>
<feColorMatrix in="SourceAlpha" type="matrix" values="0 0 0 0 0 0 0 0 0 0 0 0 0 0 0 0 0 0 127 0" result="hardAlpha"/>
<feOffset dx="2" dy="2"/>
<feComposite in2="hardAlpha" operator="out"/>
<feColorMatrix type="matrix" values="0 0 0 0 0.247059 0 0 0 0 0.537255 0 0 0 0 0.741176 0 0 0 1 0"/>
<feBlend mode="normal" in2="BackgroundImageFix" result="effect1_dropShadow_189_43"/>
<feBlend mode="normal" in="SourceGraphic" in2="effect1_dropShadow_189_43" result="shape"/>
</filter>
</defs>
</svg>
