<svg width="32" height="32" viewBox="0 0 32 32" fill="none" xmlns="http://www.w3.org/2000/svg">
<path d="M3.46444 6.60225L2.18206 5.31972L1.78193 7.0887L1.73127 7.3127L1.72599 7.336L1.72184 7.35953C1.68463 7.5704 1.66663 7.78419 1.66663 7.99998V24V24.0166L1.66718 24.0333L1.67385 24.2333L1.67454 24.2542L1.67611 24.275C1.74549 25.1974 2.16097 26.0596 2.83927 26.6886C3.51749 27.3175 4.40835 27.6669 5.33329 27.6666C5.3334 27.6666 5.3335 27.6666 5.33361 27.6666H26.6666H26.6833L26.6999 27.6661L26.8999 27.6594L26.9208 27.6587L26.9416 27.6572C27.8641 27.5878 28.7262 27.1723 29.3552 26.494C29.9841 25.8158 30.3335 24.9249 30.3333 24C30.3333 23.9999 30.3333 23.9998 30.3333 23.9997V7.99998V7.97714L30.3323 7.95432L30.3216 7.72098L30.3206 7.70034L30.3188 7.67976C30.3007 7.47177 30.2655 7.26668 30.213 7.06512L29.7727 5.3756L28.5381 6.61025L16.7307 18.419L16.6199 18.5191C16.4306 18.6666 16.1943 18.7413 15.9541 18.7289C15.7068 18.7163 15.473 18.6123 15.298 18.4371L15.2978 18.4369L3.46444 6.60225ZM27.3636 4.39997L27.3401 4.39458L27.3163 4.39032C27.1023 4.35197 26.8855 4.33331 26.6666 4.33331H5.33329H5.31083L5.28839 4.33432L5.05106 4.34499L5.03054 4.34591L5.01007 4.34767C4.79693 4.36605 4.58696 4.40298 4.38098 4.45881L2.71479 4.9105L3.93556 6.13113L15.2996 17.4938L16.0067 18.2008L16.7137 17.4938L28.0737 6.13375L29.3515 4.85601L27.5902 4.45197L27.3636 4.39997Z" fill="#DCEEFB" stroke="#969191" stroke-width="2"/>
</svg>
