<svg width="32" height="32" viewBox="0 0 32 32" fill="none" xmlns="http://www.w3.org/2000/svg">
<path d="M26.6837 25.1835L26.6838 25.1832L27.4105 23.7299L26.516 23.2827L27.4105 23.7299C27.5769 23.3971 27.6667 23.0392 27.6667 22.6534V5.33335C27.6667 4.36089 27.2804 3.42826 26.5928 2.74063C25.9051 2.05299 24.9725 1.66669 24 1.66669H9.33337C8.00729 1.66669 6.73552 2.19347 5.79784 3.13115C4.86016 4.06884 4.33337 5.3406 4.33337 6.66669V25.3334C4.33337 26.6594 4.86016 27.9312 5.79784 28.8689C6.73552 29.8066 8.00729 30.3334 9.33337 30.3334H25.3334H25.3337C25.7353 30.3332 26.1301 30.2294 26.4798 30.032C26.8296 29.8346 27.1225 29.5503 27.3302 29.2065L26.4742 28.6894L27.3302 29.2065C27.5378 28.8628 27.6532 28.4712 27.6653 28.0698C27.6771 27.6723 27.5872 27.2784 27.4042 26.9255L26.6841 25.4828L26.6837 25.4819C26.6605 25.4356 26.6484 25.3845 26.6484 25.3327C26.6484 25.2809 26.6605 25.2298 26.6837 25.1835ZM9.33337 25H21.9931C21.9782 25.222 21.9782 25.4447 21.9931 25.6667H9.33337C9.24497 25.6667 9.16018 25.6316 9.09767 25.5691C9.03516 25.5065 9.00004 25.4218 9.00004 25.3334C9.00004 25.2449 9.03516 25.1602 9.09767 25.0977C9.16018 25.0351 9.24497 25 9.33337 25ZM13.0977 10.431C13.1602 10.3685 13.245 10.3334 13.3334 10.3334H18.6667C18.7551 10.3334 18.8399 10.3685 18.9024 10.431C18.9649 10.4935 19 10.5783 19 10.6667C19 10.7551 18.9649 10.8399 18.9024 10.9024C18.8399 10.9649 18.7551 11 18.6667 11H13.3334C13.245 11 13.1602 10.9649 13.0977 10.9024C13.0352 10.8399 13 10.7551 13 10.6667C13 10.5783 13.0352 10.4935 13.0977 10.431Z" fill="#DCEEFB" stroke="#969191" stroke-width="2"/>
</svg>
