<svg width="108" height="24" viewBox="0 0 108 24" fill="none" xmlns="http://www.w3.org/2000/svg">
<path d="M16.16 23H5.152V21.784C5.57867 21.6133 6.05867 21.4427 6.592 21.272C7.14667 21.08 7.70133 20.9413 8.256 20.856V2.68H4.544L2.496 8.152H1.184C1.09867 7.72533 1.01333 7.18133 0.928 6.52C0.842667 5.85867 0.768 5.176 0.704 4.472C0.64 3.768 0.586667 3.07467 0.544 2.392C0.501333 1.688 0.48 1.09067 0.48 0.599998H20.864C20.864 1.112 20.8427 1.70933 20.8 2.392C20.7573 3.07467 20.704 3.768 20.64 4.472C20.576 5.176 20.5013 5.85867 20.416 6.52C20.3307 7.16 20.2453 7.704 20.16 8.152H18.816L16.768 2.68H13.056V20.856C13.6107 20.9627 14.1547 21.0907 14.688 21.24C15.2427 21.3893 15.7333 21.5707 16.16 21.784V23ZM57.7138 16.28H59.0258C59.1111 16.6213 59.1858 17.0373 59.2498 17.528C59.3351 17.9973 59.3991 18.5093 59.4418 19.064C59.5058 19.5973 59.5484 20.1307 59.5698 20.664C59.5911 21.1973 59.6018 21.6773 59.6018 22.104C58.8551 22.5733 57.9164 22.904 56.7858 23.096C55.6764 23.288 54.5351 23.384 53.3618 23.384C51.5911 23.384 49.9804 23.1707 48.5298 22.744C47.1004 22.296 45.8738 21.6027 44.8498 20.664C43.8471 19.704 43.0684 18.4987 42.5138 17.048C41.9591 15.576 41.6818 13.816 41.6818 11.768C41.6818 9.74133 41.9804 8.00267 42.5778 6.552C43.1964 5.08 44.0178 3.87467 45.0418 2.936C46.0658 1.99733 47.2498 1.31467 48.5938 0.887999C49.9591 0.439999 51.3884 0.216 52.8818 0.216C54.2898 0.216 55.5591 0.322666 56.6898 0.535999C57.8418 0.727999 58.7804 0.994666 59.5058 1.336C59.5058 1.67733 59.4844 2.11467 59.4418 2.648C59.4204 3.18133 59.3671 3.74667 59.2818 4.344C59.2178 4.92 59.1324 5.496 59.0258 6.072C58.9404 6.62667 58.8551 7.096 58.7698 7.48H57.4258L55.6658 2.648C55.4738 2.54133 55.1644 2.456 54.7378 2.392C54.3111 2.328 53.8738 2.296 53.4258 2.296C52.5511 2.296 51.7298 2.47733 50.9618 2.84C50.1938 3.18133 49.5111 3.736 48.9138 4.504C48.3164 5.272 47.8471 6.264 47.5058 7.48C47.1644 8.67467 46.9938 10.1147 46.9938 11.8C46.9938 14.8507 47.6018 17.1973 48.8178 18.84C50.0338 20.4827 51.6871 21.304 53.7778 21.304C54.3751 21.304 54.8764 21.2613 55.2818 21.176C55.7084 21.0693 55.9964 20.9307 56.1458 20.76L57.7138 16.28ZM77.6287 18.36C77.6287 18.8293 77.6287 19.2347 77.6287 19.576C77.6501 19.9173 77.6821 20.28 77.7247 20.664L79.9328 20.984V22.104C79.6768 22.232 79.3247 22.36 78.8767 22.488C78.4501 22.616 77.9914 22.744 77.5007 22.872C77.0314 22.9787 76.5621 23.064 76.0927 23.128C75.6234 23.2133 75.2074 23.2773 74.8447 23.32H73.7567C73.5434 22.8293 73.4154 22.3387 73.3727 21.848C73.3301 21.3573 73.2981 20.76 73.2767 20.056H73.1167C73.0101 20.4827 72.8287 20.8987 72.5727 21.304C72.3167 21.688 71.9861 22.04 71.5807 22.36C71.1967 22.6587 70.7381 22.904 70.2047 23.096C69.6714 23.288 69.0741 23.384 68.4127 23.384C67.7087 23.384 67.0581 23.2773 66.4607 23.064C65.8634 22.8507 65.3407 22.552 64.8927 22.168C64.4447 21.784 64.0927 21.3253 63.8367 20.792C63.5807 20.2373 63.4527 19.6187 63.4527 18.936C63.4527 17.976 63.6341 17.1867 63.9967 16.568C64.3594 15.9493 64.9247 15.448 65.6927 15.064C66.4821 14.6587 67.4847 14.36 68.7007 14.168C69.9381 13.976 71.4314 13.8373 73.1807 13.752C73.3514 11.9173 73.2767 10.5733 72.9567 9.72C72.6367 8.86667 71.9434 8.44 70.8767 8.44C70.2154 8.44 69.6074 8.54667 69.0527 8.76L67.5487 12.6H66.1407C65.9701 12.344 65.7994 12.056 65.6287 11.736C65.4794 11.3947 65.3301 11.0427 65.1807 10.68C65.0527 10.296 64.9354 9.912 64.8287 9.528C64.7434 9.144 64.6794 8.77067 64.6367 8.408C65.4474 7.85333 66.4927 7.416 67.7727 7.096C69.0527 6.776 70.4074 6.616 71.8367 6.616C73.0527 6.616 74.0447 6.75467 74.8127 7.032C75.5807 7.288 76.1781 7.65067 76.6047 8.12C77.0527 8.568 77.3621 9.10133 77.5327 9.72C77.7034 10.3387 77.7887 11 77.7887 11.704C77.7887 12.984 77.7567 14.1467 77.6927 15.192C77.6501 16.216 77.6287 17.272 77.6287 18.36ZM70.4287 20.824C70.8767 20.824 71.2607 20.7387 71.5807 20.568C71.9007 20.3973 72.1674 20.1947 72.3807 19.96C72.6154 19.7253 72.7861 19.4693 72.8927 19.192C73.0207 18.9147 73.1167 18.6693 73.1807 18.456V15.256C72.1781 15.2773 71.3567 15.3413 70.7167 15.448C70.0767 15.5547 69.5754 15.736 69.2127 15.992C68.8501 16.2267 68.5941 16.536 68.4447 16.92C68.3167 17.2827 68.2527 17.7307 68.2527 18.264C68.2527 19.0747 68.4447 19.704 68.8287 20.152C69.2127 20.6 69.7461 20.824 70.4287 20.824ZM81.9373 7.768C82.7479 7.256 83.6013 6.89333 84.4973 6.68V4.088C84.6253 3.96 84.8386 3.84267 85.1373 3.736C85.4573 3.608 85.7879 3.50133 86.1293 3.416C86.4919 3.30933 86.8439 3.21333 87.1853 3.128C87.5266 3.04267 87.8039 2.97867 88.0173 2.936H89.1053V7H93.3293V9.016H89.1053V17.304C89.1053 18.6267 89.2653 19.544 89.5853 20.056C89.9266 20.568 90.4813 20.824 91.2493 20.824C91.6333 20.824 92.0599 20.8027 92.5293 20.76C93.0199 20.696 93.4679 20.5893 93.8733 20.44L94.0973 21.496C93.9053 21.688 93.6173 21.8907 93.2333 22.104C92.8706 22.3173 92.4439 22.52 91.9533 22.712C91.4839 22.904 90.9613 23.064 90.3853 23.192C89.8306 23.32 89.2439 23.384 88.6253 23.384C87.2386 23.384 86.2039 23.0213 85.5213 22.296C84.8386 21.5707 84.4973 20.3973 84.4973 18.776V9.016H81.9373V7.768ZM95.7173 7.768C96.5279 7.256 97.3813 6.89333 98.2773 6.68V4.088C98.4053 3.96 98.6186 3.84267 98.9173 3.736C99.2373 3.608 99.5679 3.50133 99.9093 3.416C100.272 3.30933 100.624 3.21333 100.965 3.128C101.307 3.04267 101.584 2.97867 101.797 2.936H102.885V7H107.109V9.016H102.885V17.304C102.885 18.6267 103.045 19.544 103.365 20.056C103.707 20.568 104.261 20.824 105.029 20.824C105.413 20.824 105.84 20.8027 106.309 20.76C106.8 20.696 107.248 20.5893 107.653 20.44L107.877 21.496C107.685 21.688 107.397 21.8907 107.013 22.104C106.651 22.3173 106.224 22.52 105.733 22.712C105.264 22.904 104.741 23.064 104.165 23.192C103.611 23.32 103.024 23.384 102.405 23.384C101.019 23.384 99.9839 23.0213 99.3013 22.296C98.6186 21.5707 98.2773 20.3973 98.2773 18.776V9.016H95.7173V7.768Z" fill="#20445E"/>
<path d="M22.921 20.728C22.921 19.96 23.1663 19.3413 23.657 18.872C24.1477 18.4027 24.7983 18.168 25.609 18.168C26.4197 18.168 27.081 18.4027 27.593 18.872C28.105 19.3413 28.361 19.96 28.361 20.728C28.361 21.496 28.105 22.1147 27.593 22.584C27.081 23.032 26.4197 23.256 25.609 23.256C24.7983 23.256 24.1477 23.032 23.657 22.584C23.1663 22.1147 22.921 21.496 22.921 20.728Z" fill="#4FABEC"/>
</svg>
